<svg height="480pt" viewBox="0 0 480 480.0018" width="480pt" xmlns="http://www.w3.org/2000/svg"><path d="m264 8v368h-128v8h-96c-17.671875 0-32-14.324219-32-32v-344l32 48 32-48 32 48 32-48 32 48 32-48 32 48zm0 0" fill="#e6e7e8"/><path d="m264 100.160156v275.839844h-128v8h-96c-17.671875 0-32-14.324219-32-32v-4.316406c105.867188-58.222656 194.25-143.675782 256-247.523438zm0 0" fill="#d7d7d9"/><path d="m312 224v40h64v-40c0-17.671875-14.324219-32-32-32-17.671875 0-32 14.328125-32 32zm0 0" fill="#bcbec0"/><path d="m312 296v-72c0-17.671875 14.328125-32 32-32h-80v104zm0 0" fill="#d1d3d4"/><path d="m136 296h336v176h-336zm0 0" fill="#00ccb3"/><path d="m352 384c0 26.511719-21.488281 48-48 48-26.507812 0-48-21.488281-48-48 0-26.507812 21.492188-48 48-48 26.511719 0 48 21.492188 48 48zm0 0" fill="#ffd422"/><g fill="#00b8a1"><path d="m472 360v-64h-64c0 35.347656 28.65625 64 64 64zm0 0"/><path d="m408 472h64v-64c-35.34375 0-64 28.65625-64 64zm0 0"/><path d="m136 360c35.347656 0 64-28.652344 64-64h-64zm0 0"/><path d="m136 408v64h64c0-35.34375-28.652344-64-64-64zm0 0"/></g><path d="m304 440c30.929688 0 56-25.070312 56-56 0-30.925781-25.070312-56-56-56-30.925781 0-56 25.074219-56 56 .039062 30.914062 25.089844 55.960938 56 56zm0-96c22.09375 0 40 17.910156 40 40 0 22.09375-17.90625 40-40 40-22.089844 0-40-17.90625-40-40 .027344-22.078125 17.921875-39.972656 40-40zm0 0"/><path d="m472 288h-152v-16h56c4.417969 0 8-3.578125 8-8v-40c.011719-10.609375-4.199219-20.789062-11.703125-28.292969-7.503906-7.503906-17.683594-11.714843-28.296875-11.707031h-72v-176c0-3.523438-2.304688-6.632812-5.679688-7.65625s-7.019531.285156-8.976562 3.21875l-25.34375 38.039062-25.34375-38.039062c-1.570312-2.097656-4.035156-3.335938-6.65625-3.335938-2.617188 0-5.085938 1.238282-6.65625 3.335938l-25.34375 38.039062-25.34375-38.039062c-1.570312-2.097656-4.035156-3.335938-6.65625-3.335938-2.617188 0-5.085938 1.238282-6.65625 3.335938l-25.34375 38.039062-25.34375-38.039062c-1.570312-2.097656-4.035156-3.335938-6.65625-3.335938-2.617188 0-5.085938 1.238282-6.65625 3.335938l-25.34375 38.039062-25.34375-38.039062c-1.957031-2.933594-5.601562-4.242188-8.976562-3.21875-3.371094 1.023438-5.679688 4.132812-5.679688 7.65625v344c.0273438 22.082031 17.921875 39.976562 40 40h88v80c0 4.421875 3.582031 8 8 8h336c4.417969 0 8-3.578125 8-8v-176c0-4.417969-3.582031-8-8-8zm-328 79.53125c33.398438-3.78125 59.75-30.132812 63.527344-63.53125h192.945312c3.777344 33.398438 30.132813 59.75 63.527344 63.53125v32.941406c-33.394531 3.777344-59.75 30.132813-63.527344 63.527344h-192.945312c-3.777344-33.394531-30.128906-59.75-63.527344-63.527344zm0-16.097656v-47.433594h47.433594c-3.582032 24.5625-22.871094 43.851562-47.433594 47.433594zm320-47.433594v47.433594c-24.558594-3.582032-43.847656-22.871094-47.429688-47.433594zm-192-16v-88h40.207031c-5.292969 6.886719-8.175781 15.316406-8.207031 24v64zm88.945312-81.023438c4.511719 4.519532 7.046876 10.640626 7.054688 17.023438v32h-48v-32c-.011719-9.703125 5.824219-18.460938 14.785156-22.1875 8.964844-3.722656 19.285156-1.6875 26.160156 5.164062zm-320.945312 169.023438c-13.253906 0-24-10.742188-24-24v-317.597656l17.34375 26.039062c1.570312 2.097656 4.039062 3.332032 6.65625 3.332032 2.621094 0 5.085938-1.234376 6.65625-3.332032l25.34375-38.039062 25.34375 38.015625c1.570312 2.097656 4.039062 3.332031 6.65625 3.332031 2.621094 0 5.085938-1.234375 6.65625-3.332031l25.34375-38.015625 25.34375 38.015625c1.570312 2.097656 4.039062 3.332031 6.65625 3.332031 2.621094 0 5.085938-1.234375 6.65625-3.332031l25.34375-38.015625 25.34375 38.015625c1.570312 2.097656 4.039062 3.332031 6.65625 3.332031 2.621094 0 5.085938-1.234375 6.65625-3.332031l17.34375-26.015625v253.597656h-120c-4.417969 0-8 3.582031-8 8v80zm104 88v-47.429688c24.5625 3.582032 43.851562 22.871094 47.433594 47.429688zm320 0h-47.429688c3.582032-24.558594 22.871094-43.847656 47.429688-47.429688zm0 0"/><path d="m88 136h-16c-4.417969 0-8-3.578125-8-8 0-4.417969 3.582031-8 8-8h16c4.417969 0 8 3.582031 8 8h16c0-13.253906-10.746094-24-24-24v-8h-16v8c-13.253906 0-24 10.746094-24 24 0 13.257812 10.746094 24 24 24h16c4.417969 0 8 3.582031 8 8 0 4.421875-3.582031 8-8 8h-16c-4.417969 0-8-3.578125-8-8h-16c0 13.257812 10.746094 24 24 24v8h16v-8c13.253906 0 24-10.742188 24-24 0-13.253906-10.746094-24-24-24zm0 0"/><path d="m128 128h32v16h-32zm0 0"/><path d="m176 128h48v16h-48zm0 0"/><path d="m128 160h96v16h-96zm0 0"/><path d="m48 224h48v16h-48zm0 0"/><path d="m112 224h80v16h-80zm0 0"/><path d="m48 256h48v16h-48zm0 0"/><path d="m48 288h48v16h-48zm0 0"/><path d="m48 320h48v16h-48zm0 0"/><path d="m112 256h80v16h-80zm0 0"/></svg>